<svg xmlns="http://www.w3.org/2000/svg" viewBox="0 0 512 512" role="img" aria-label="GLPI logo">
  <rect x="28" y="74" width="436" height="436" rx="34" fill="#9ec9e2"/>
  <rect x="64" y="28" width="420" height="420" rx="34" fill="#1ea0df"/>
  <path d="M405 121C280 111 181 140 120 198c-71 68-73 161-4 224 58 52 140 72 233 60 17-2 30-17 30-34v-18c0-20-18-35-38-33-64 8-122-4-162-33-55-40-52-107 7-148 45-31 113-44 198-36 18 2 34-12 34-31v-21c0-18-13-32-31-34z" fill="#f5f5f5"/>
  <path d="M142 386l170-111c9-6 7-20-4-22l-83-16 70-43c10-6 8-22-5-24-87-13-151 8-191 65-34 48-29 108 12 153 13 14 33 13 49-2l-18 0z" fill="#b8d8ea"/>
</svg>
